<?xml version="1.0" encoding="UTF-8"?>
<!-- Generator: Adobe Illustrator 17.0.0, SVG Export Plug-In . SVG Version: 6.00 Build 0)  -->
<!DOCTYPE svg PUBLIC "-//W3C//DTD SVG 1.1//EN" "http://www.w3.org/Graphics/SVG/1.1/DTD/svg11.dtd">
<svg version="1.1" id="Layer_1" xmlns="http://www.w3.org/2000/svg" xmlns:xlink="http://www.w3.org/1999/xlink" x="0px" y="0px" width="18.56px" height="20px" viewBox="0 0 18.56 20" enable-background="new 0 0 18.56 20" xml:space="preserve">
<path fill="#DA2128" d="M5.29,13.162H16.3c1.252-0.002,2.267-1.017,2.27-2.269V6.21c0.002-0.009-0.002-0.018-0.01-0.023V6.13  c-0.008-0.006-0.012-0.017-0.01-0.027c-0.008-0.007-0.011-0.017-0.01-0.027c-0.008-0.005-0.012-0.015-0.01-0.024  c-0.004-0.009-0.008-0.018-0.01-0.027c-0.006-0.005-0.01-0.013-0.01-0.021c-0.006-0.008-0.013-0.016-0.02-0.024  c0.002-0.008-0.002-0.016-0.01-0.02c-0.002-0.011-0.01-0.02-0.02-0.024c0.002-0.009-0.002-0.019-0.01-0.024  c-0.01-0.007-0.01-0.011-0.02-0.018c-0.003-0.007-0.006-0.014-0.01-0.021c-0.007-0.005-0.014-0.011-0.02-0.017  c-0.006-0.007-0.013-0.014-0.02-0.02c-0.01,0-0.01-0.013-0.02-0.017l-0.03-0.017c-0.006-0.005-0.013-0.009-0.02-0.012  c-0.008-0.003-0.015-0.009-0.02-0.016c-0.01,0-0.02-0.009-0.03-0.012c-0.004-0.007-0.012-0.011-0.02-0.011  c-0.009-0.006-0.019-0.01-0.03-0.013c-0.006-0.005-0.013-0.007-0.02-0.008c-0.009-0.006-0.019-0.009-0.03-0.009  c-0.007,0-0.014-0.002-0.02-0.006c-0.01-0.001-0.02-0.001-0.03,0c-0.01,0-0.01,0-0.02,0L4.13,3.787V1.78  c0-0.007-0.004-0.013-0.01-0.016V1.729c0.002-0.013-0.002-0.026-0.01-0.036V1.672C4.102,1.661,4.096,1.649,4.09,1.637V1.621  c0-0.013-0.01-0.021-0.01-0.035C4.073,1.584,4.069,1.578,4.07,1.571C4.06,1.563,4.06,1.555,4.05,1.546s-0.01-0.012-0.01-0.02  C4.032,1.522,4.029,1.513,4.03,1.505C4.02,1.5,4.013,1.492,4.01,1.482c-0.004-0.005-0.007-0.01-0.01-0.016  C3.988,1.46,3.978,1.452,3.969,1.442C3.965,1.439,3.962,1.435,3.959,1.43C3.95,1.422,3.94,1.414,3.929,1.407  C3.925,1.4,3.918,1.395,3.909,1.394c-0.004-0.009-0.011-0.016-0.02-0.02C3.881,1.365,3.87,1.358,3.859,1.353  c-0.01,0-0.01,0-0.01-0.009L3.789,1.32l-3.03-1.274C0.477-0.073,0.152,0.06,0.033,0.342c-0.119,0.282,0.014,0.607,0.296,0.726  l2.69,1.134v12.159c0.001,1.141,0.849,2.103,1.98,2.249c-0.216,0.345-0.33,0.743-0.33,1.15c-0.004,1.237,0.996,2.243,2.233,2.247  c1.237,0.004,2.243-0.996,2.247-2.233c0-0.004,0-0.009,0-0.013c0.002-0.398-0.105-0.788-0.31-1.129h4.99  c-0.204,0.341-0.312,0.731-0.31,1.129c0,1.237,1.003,2.24,2.24,2.24c1.237,0,2.24-1.003,2.24-2.24s-1.003-2.24-2.24-2.24l0,0H5.289  c-0.64-0.001-1.159-0.519-1.16-1.159v-1.5C4.482,13.063,4.883,13.167,5.29,13.162z M8.05,17.75c0,0.624-0.506,1.13-1.13,1.13  s-1.13-0.506-1.13-1.13s0.506-1.13,1.13-1.13C7.544,16.621,8.049,17.126,8.05,17.75z M16.89,17.75  c0.004,0.621-0.496,1.127-1.117,1.131c-0.001,0-0.002,0-0.003,0c-0.624-0.019-1.115-0.54-1.097-1.164  c0.018-0.598,0.499-1.079,1.097-1.097c0.621,0.002,1.122,0.507,1.12,1.128C16.89,17.749,16.89,17.749,16.89,17.75z M16.3,12.05H5.29  c-0.64-0.001-1.159-0.52-1.16-1.16V4.9l13.33,1.838v4.155c0.001,0.64-0.516,1.159-1.156,1.16c-0.001,0-0.003,0-0.004,0V12.05z"/>
</svg>